<svg version="1" xmlns="http://www.w3.org/2000/svg" width="894.667" height="894.667" viewBox="0 0 671.000000 671.000000"><path d="M423.2 159.2c-.8.8-1.2 4.6-1.2 10.5 0 10.8-1.6 12.4-4.5 4.5-2.1-5.8-5-8.6-7.5-7.2-2.8 1.5-2.9 3.2-.4 9.4 1.3 3.2 2.1 6.3 1.8 6.8-.4.6-3.7-2-7.4-5.7-5.2-5.1-7.3-6.6-9.1-6.3-1.7.2-2.5 1-2.7 2.8-.2 1.9 1.1 3.9 5.8 8.5 5.5 5.4 7.3 8.5 5.1 8.5-.5 0-2.9-.9-5.5-2.1-5.3-2.3-8.4-2.2-10 .3-1.7 2.7.3 4.9 6.5 7.4 8.3 3.4 7.5 4.4-3.4 4.4-10.2 0-12.1.9-11.5 5.2.3 2.2.7 2.3 10.6 2.6 11.9.3 13.2 1.6 4.8 5.1-6.4 2.6-8 4.2-7.1 7 1 3.2 4.5 3.5 10.7.7 3.2-1.4 5.9-2.2 6.2-1.7.3.4-2.2 3.4-5.5 6.7-7.8 7.6-8.6 9-6.3 11.5.9 1 2.4 1.9 3.2 1.9.7 0 4.5-3 8.3-6.7 3.8-3.6 7.2-6.3 7.5-6 .4.3-.3 3.1-1.6 6.1-2.4 6-2.4 8.3.1 9.9 2.8 1.7 4.9-.1 7.6-6.3 1.5-3.3 3-6 3.5-6 .4 0 .8 4.2.8 9.2 0 5.1.4 9.8.8 10.4 1.1 1.7 3.5 2.2 5.5 1.2 1.4-.7 1.7-2.4 1.7-10.8 0-11.9 1.3-13 4.9-4 2.6 6.4 5.6 8.5 8.6 6 2-1.7 1.8-3.5-1-10-1.4-3.3-1.9-5.6-1.3-5.9.5-.2 4.1 2.7 7.8 6.4 5.4 5.3 7.2 6.6 8.8 6.1 1.2-.4 2.4-1.6 2.8-2.8.5-1.6-.8-3.4-6-8.7-3.6-3.7-6.6-7.2-6.6-7.9 0-1.6 0-1.6 6 .8 8 3.2 11 2.5 11-2.6 0-.9-2.8-2.7-6.5-4.4-3.6-1.6-6.5-3.4-6.5-3.9 0-.6 4.2-1.1 10.3-1.3 9.8-.3 10.2-.4 10.5-2.6.6-4.3-1.3-5.2-11.4-5.2-11.3 0-12.3-1.4-3.4-4.8 6.2-2.4 8.2-5 6-7.7-1.7-2-4-1.9-10.1.5-2.8 1.2-5.4 1.8-5.7 1.5-.3-.3 2.5-3.6 6.1-7.4 6.8-7 7.7-8.7 5.5-10.9-2.5-2.5-5.4-1.1-11.8 5.3-3.5 3.6-6.8 6.1-7.3 5.6-.4-.4.1-3.1 1.3-6 2.4-6.1 2.5-8.4.5-10.1-2.7-2.2-5.3-.2-7.7 6-3.4 8.9-4.8 7.9-4.8-3.3 0-9.5-.8-11.7-4-11.7-.9 0-2.1.5-2.8 1.2zm13.6 31.5c5.4 4.3 7.4 8.6 6.9 15.5-.4 6.9-4 12.1-10.1 14.9-5.5 2.5-10.2 2.4-15.6-.4-7.2-3.6-11.1-11.3-9.6-19.1 2.4-12.6 18.5-18.9 28.4-10.9z"/><path d="M332.8 182.7c-.8 1-18.9 31.9-40.2 68.8-21.3 36.8-39 67.1-39.5 67.3-.5.2-7.3-10.9-15.1-24.5-7.9-13.6-15-25.6-15.8-26.6-.9-1-2.6-1.7-4-1.5-2.1.3-5.9 6.4-24.9 39.3-12.4 21.4-30.1 52.1-39.4 68.2-9.3 16-16.9 29.8-16.9 30.5 0 3.4 2.2 3.8 22.2 3.8 10.9 0 19.8.3 19.8.7-.1.5-.9 1.8-1.9 3-1.7 2.1-2.6 2.2-23.2 2.5-19.3.3-21.8.5-25.9 2.4-5.9 2.8-11.8 8.6-14.4 14.3-2.5 5.6-2.7 16.8-.4 22.2 2.3 5.3 8.4 11.7 14.2 14.7l5.1 2.7 39.7.3 39.7.3.6 2.9c1.1 5.1 5.9 10.5 11.4 12.8l5.1 2.2 96.8-.2 96.8-.3 4.3-2.8c4.5-3 7.8-7.5 8.7-11.9l.6-2.7 20.2-.3c17.9-.3 20.6-.5 24.7-2.4 6.2-2.9 11.4-7.7 13.9-12.9l2.2-4.5h21.1c20.1 0 21.4-.1 26.2-2.4 15.5-7.2 20.1-26 9.5-38.8-4.1-4.9-12.1-8.8-18.2-8.8-5.7 0-3.9 2.3-22.5-30-58.2-101.2-60.5-105-63.4-105-2.5 0-3.9 2-17.5 25.5-8.1 14-15 25.5-15.3 25.5-.3-.1-18.1-30.6-39.6-67.8-40.6-70.5-40.9-70.9-44.7-66.5zm14.6 30.6l9.6 16.9-4.1 7.4c-2.2 4.1-4.2 7.4-4.4 7.4-.2 0-2.5-3.8-5.2-8.5-7-12.2-7.8-12.2-15.2.5l-4.9 8.4-2.1-3.5c-1.1-1.9-3.1-5.3-4.3-7.6l-2.2-4.1 10.4-18.1c8.1-14.1 10.7-17.8 11.6-16.9.6.7 5.5 8.9 10.8 18.1zm39.5 68.6c13.8 23.9 25.1 44 25.1 44.6 0 .5-9.4 17.2-20.8 37l-20.9 36-11.3.3c-11.8.3-13-.1-13-4.1 0-1.3.9-1.7 4-1.7 2.2 0 4-.4 4-.9 0-1.1-7.9-24.1-8.9-25.9-.4-.8-1.7 1.8-3.1 6.3-1.3 4.2-2.7 7.8-3 8-.3.2-1.9-3.5-3.4-8.2-5.4-16.5-4.7-16.4-9.6-1.8l-4.3 12.9-2.8-8c-1.6-4.3-2.9-8.6-2.9-9.4 0-3.1-1.9 1-5.9 13-2.2 6.9-4.1 12.8-4.1 13.3 0 .4 1.8.7 4 .7 4.2 0 4.3.1 3.4 3.7-.6 2.1-1.2 2.3-7.8 2.3l-7.1-.1-20-34.7c-11-19.1-20-35.4-20-36.3 0-1.7 50.5-89.9 51.5-89.9.3 0 2.9 4.1 5.8 9.1 6.8 11.5 7.8 11.6 14.5.4 2.6-4.4 5.1-8.1 5.5-8.2.4-.1 2.9 3.6 5.5 8.2 6.7 11.8 7.9 11.6 16.2-3.3 2.2-3.9 4-7 4.1-6.9.1.1 11.5 19.8 25.3 43.6zm-166-.3c2.6 4.4 2.6 4.9 0 9.1l-2.2 3.4-2.3-4-2.3-4.1 2.2-4c1.2-2.2 2.3-4 2.4-4 0 0 1 1.6 2.2 3.6zm231.7.9c1.8 3.4 1.8 3.6 0 7-1.1 1.9-2.3 3.5-2.8 3.5-.4 0-1.6-1.6-2.5-3.5-1.6-3.3-1.6-3.7 0-7 .9-1.9 2.1-3.5 2.5-3.5.5 0 1.7 1.6 2.8 3.5zm-3 23.5c2.3 0 4.6-2.4 7.7-8.1 1-1.8 2.1-2.8 2.6-2.3 1.2 1.2 60.1 103.1 60.1 103.8 0 .9-19 .7-19-.2 0-.4-.3-1.7-.6-3-.6-2-.3-2.2 3.5-2.2 2.2 0 4.1-.3 4.1-.7 0-1.6-8.5-26.3-9-26.3-.3 0-1.7 3.2-3 7.1-1.4 3.9-2.7 7.2-3 7.4-.4.2-2.3-4.8-4.4-11.1-2-6.3-3.9-11.4-4.1-11.4-.2 0-2.2 5.7-4.6 12.7l-4.2 12.8-3.2-9.5-3.1-9.4-3.1 8.4c-1.7 4.7-3.6 10.4-4.3 12.7-.7 2.4-1.6 4.3-2 4.3-.4 0-9.1-14.6-19.4-32.4l-18.7-32.3 9.3-16.1 9.3-16 3.5 5.9c2.5 4.4 4 5.9 5.6 5.9zM213 300.6c2.8 4.7 3.6 5.5 5.9 5.2 2-.2 3.3-1.6 5.6-5.5 1.7-2.9 3.3-5.2 3.6-5.3.4 0 5.1 7.5 10.4 16.7l9.7 16.8-1.6 3c-.9 1.6-10.1 17.6-20.5 35.5-16.5 28.6-19 32.5-21.2 32.5-1.9 0-2.5-.6-2.7-2.8-.3-2.6-.1-2.7 3.8-2.7 5 0 5.1 1-1.2-16.7l-4.1-11.7-2.4 7c-1.3 3.8-2.6 7.6-2.9 8.4-.5 1.2-3.4-6.1-8.7-21.5-.2-.5-2.3 4.8-4.7 11.9l-4.4 12.8-3-8.6c-1.7-4.7-3.3-8.6-3.6-8.6-.5 0-9 24.8-9 26.3 0 .4 1.8.7 4.1.7 4 0 4.1.1 3.4 2.7-.4 1.6-.8 2.9-1 3.1-.1.1-4.7.1-10.2 0l-9.9-.3 29.2-50.5c33-56.9 31.3-54 31.8-54 .3 0 1.9 2.5 3.6 5.6zm222 64.6c9.6 16.7 18 31.3 18.8 32.5l1.4 2.3H432v-3c0-2.8.2-3 4-3 2.2 0 4-.2 4-.5 0-.2-2.1-6.6-4.7-14.2l-4.7-13.7-2.5 7.6c-1.4 4.2-2.9 8-3.3 8.3-.3.4-2.3-4.5-4.4-10.9-2.1-6.3-4-11.3-4.2-11.1-.2.2-2.3 5.9-4.7 12.6l-4.2 12.3-2.9-8.7c-1.5-4.8-3.1-8.7-3.4-8.7-.3 0-2.6 6.1-5.2 13.5l-4.7 13.5h4c3.7 0 3.9.2 3.9 3v3h-20l2.7-4.8C410.1 346 416.6 335 417 335c.3 0 8.4 13.6 18 30.2zm-162.4 5.1l17.3 29.8-10.2-.3-10.2-.3-.3-2.8c-.3-2.6-.1-2.7 3.7-2.7 2.3 0 4.1-.4 4.1-.9 0-1.1-7.9-24.1-8.9-25.9-.4-.8-1.7 1.8-3.1 6.3-1.3 4.2-2.7 7.8-3 8-.4.2-1.4-2.1-2.4-5.1-1-3.1-2.8-8.3-4-11.6l-2.3-6.1-4.3 12.8-4.4 12.7-3-8.6c-1.7-4.7-3.3-8.6-3.6-8.6-.5 0-9 24.8-9 26.3 0 .4 1.8.7 4 .7 4.2 0 4.3.1 3.4 3.7-.6 2.2-1.1 2.3-10 2.3-5.2 0-9.4-.2-9.4-.4 0-.5 32.1-56.3 34.7-60.5 1.5-2.3 1.6-2.3 2.6-.5.6 1 8.8 15.3 18.3 31.7zm-87.8 22.9l-.3 6.3-5.7.3-5.8.3V397c0-2.8.2-3 4-3s3.9-.1 3-2.6c-1.5-3.9-1.3-4.4 2-4.4h3.1l-.3 6.2zm8.2-5.3c0 .5-.4 2.1-1 3.5-.9 2.5-.8 2.6 3 2.6s4 .2 4 3c0 3-.1 3-5.5 3H188v-6.5c0-6.3.1-6.5 2.5-6.5 1.4 0 2.5.4 2.5.9zm58.8 5.3l-.3 6.3-5.7.3-5.8.3V397c0-2.8.2-3 4-3s3.9-.1 3-2.6c-1.5-3.9-1.3-4.4 2-4.4h3.1l-.3 6.2zm8.2-5.3c0 .5-.4 2.1-1 3.5-.9 2.5-.8 2.6 3 2.6s4 .2 4 3c0 3-.1 3-5.5 3H255v-6.5c0-6.3.1-6.5 2.5-6.5 1.4 0 2.5.4 2.5.9zm69 5.6v6.5h-12v-3c0-2.8.2-3 4-3s3.9-.1 3-2.6c-1.5-3.9-1.3-4.4 2-4.4h3v6.5zm8-5.6c0 .5-.4 2.1-1 3.5-.9 2.5-.8 2.6 3 2.6s4 .2 4 3c0 3-.1 3-5.5 3H332v-6.5c0-6.3.1-6.5 2.5-6.5 1.4 0 2.5.4 2.5.9zm78 3.3c0 8.1-.6 8.8-6.6 8.8-4 0-5.4-.4-5.4-1.4 0-.8-.3-2.1-.6-3-.5-1.3.2-1.6 3.5-1.6 4.4 0 4.7-.4 3.1-4.4-.9-2.5-.8-2.6 2.5-2.6 3.4 0 3.5.1 3.5 4.2zm7.4-2c-.4 1.3-.9 2.9-1.1 3.5-.4.9.7 1.3 3.6 1.3 3.9 0 4.1.2 4.1 3 0 3-.1 3-5.5 3H418v-6.5c0-6.3.1-6.5 2.6-6.5 2.2 0 2.4.3 1.8 2.2zm60.6 4.3v6.5h-12v-3c0-2.8.2-3 4-3s3.9-.1 3-2.6c-1.5-3.9-1.3-4.4 2-4.4h3v6.5zm8-5.6c0 .5-.4 2.1-1 3.5-.9 2.5-.8 2.6 3 2.6s4 .2 4 3c0 3-.1 3-5.5 3H486v-6.5c0-6.3.1-6.5 2.5-6.5 1.4 0 2.5.4 2.5.9zm-23.2 8.8c-.4 3.8-3 4-5.1.3l-1.8-3h3.6c3.4 0 3.6.2 3.3 2.7zm73.9 13.9c8.6 4.1 11.9 15.3 6.9 23.8-1.7 3-3.9 5.1-6.9 6.5-4 2-6 2.1-27.9 2.1h-23.5l-1.4 4.7c-1.7 6.4-7.9 12.6-14.1 14.1-2.9.7-13 1.2-25.7 1.2H428v4.2c0 2.5-.8 5.7-2 7.5-4 6.7 1.8 6.3-101.7 6.3-87.3 0-94-.1-97.3-1.8-4.3-2.1-7.2-7.4-6.8-12.4l.3-3.7-43-.3c-47.1-.3-45.8-.2-51.6-6.5-4.7-4.9-6.2-9-5.7-15.4.5-7.5 4.2-12.9 11.1-16.4 5-2.5 5.5-2.5 27.8-2.5 22.7 0 22.7 0 23.3-2.3.8-3 3.6-6.1 7.7-8.6l3.4-2.1h172.3c157.8 0 172.7.1 175.9 1.6z"/><path d="M148.5 434c-1.6 5.2-5 5 90.1 5H327l.6-2.4c.3-1.4.3-3-.1-3.5-.4-.8-28.1-1.1-89.5-1.1-88.7 0-88.9 0-89.5 2zM228.6 455.6c-.9.8-1.6 1.9-1.6 2.4s.7 1.6 1.6 2.4c1.4 1.4 10.5 1.6 89.1 1.4 82.2-.3 87.7-.4 88.7-2.1.8-1.2.8-2.2 0-3.5-1-1.6-6.5-1.7-88.7-2-78.6-.2-87.7 0-89.1 1.4z"/></svg>